<svg width="20" height="20" viewBox="0 0 20 20" fill="none" xmlns="http://www.w3.org/2000/svg">
<path d="M10.0039 5.50684C7.51953 5.50684 5.51562 7.51074 5.51562 9.99512C5.51562 12.4795 7.51953 14.4834 10.0039 14.4834C12.4883 14.4834 14.4922 12.4795 14.4922 9.99512C14.4922 7.51074 12.4883 5.50684 10.0039 5.50684ZM10.0039 12.9131C8.39844 12.9131 7.08594 11.6045 7.08594 9.99512C7.08594 8.38574 8.39453 7.07715 10.0039 7.07715C11.6133 7.07715 12.9219 8.38574 12.9219 9.99512C12.9219 11.6045 11.6094 12.9131 10.0039 12.9131ZM15.7227 5.32324C15.7227 5.90527 15.2539 6.37012 14.6758 6.37012C14.0938 6.37012 13.6289 5.90137 13.6289 5.32324C13.6289 4.74512 14.0977 4.27637 14.6758 4.27637C15.2539 4.27637 15.7227 4.74512 15.7227 5.32324ZM18.6953 6.38574C18.6289 4.9834 18.3086 3.74121 17.2812 2.71777C16.2578 1.69434 15.0156 1.37402 13.6133 1.30371C12.168 1.22168 7.83594 1.22168 6.39062 1.30371C4.99219 1.37012 3.75 1.69043 2.72266 2.71387C1.69531 3.7373 1.37891 4.97949 1.30859 6.38184C1.22656 7.82715 1.22656 12.1592 1.30859 13.6045C1.375 15.0068 1.69531 16.249 2.72266 17.2725C3.75 18.2959 4.98828 18.6162 6.39062 18.6865C7.83594 18.7686 12.168 18.7686 13.6133 18.6865C15.0156 18.6201 16.2578 18.2998 17.2812 17.2725C18.3047 16.249 18.625 15.0068 18.6953 13.6045C18.7773 12.1592 18.7773 7.83105 18.6953 6.38574ZM16.8281 15.1553C16.5234 15.9209 15.9336 16.5107 15.1641 16.8193C14.0117 17.2764 11.2773 17.1709 10.0039 17.1709C8.73047 17.1709 5.99219 17.2725 4.84375 16.8193C4.07812 16.5146 3.48828 15.9248 3.17969 15.1553C2.72266 14.0029 2.82813 11.2686 2.82813 9.99512C2.82813 8.72168 2.72656 5.9834 3.17969 4.83496C3.48438 4.06934 4.07422 3.47949 4.84375 3.1709C5.99609 2.71387 8.73047 2.81934 10.0039 2.81934C11.2773 2.81934 14.0156 2.71777 15.1641 3.1709C15.9297 3.47559 16.5195 4.06543 16.8281 4.83496C17.2852 5.9873 17.1797 8.72168 17.1797 9.99512C17.1797 11.2686 17.2852 14.0068 16.8281 15.1553Z" fill="#EAE4E7"/>
</svg>
