<svg width="159" height="159" viewBox="0 0 159 159" fill="none" xmlns="http://www.w3.org/2000/svg">
<path d="M79.5177 38.7344C56.958 38.7344 38.7612 56.9352 38.7612 79.5C38.7612 102.065 56.958 120.266 79.5177 120.266C102.077 120.266 120.274 102.065 120.274 79.5C120.274 56.9352 102.077 38.7344 79.5177 38.7344ZM79.5177 106.003C64.939 106.003 53.0207 94.1174 53.0207 79.5C53.0207 64.8826 64.9036 52.997 79.5177 52.997C94.1319 52.997 106.015 64.8826 106.015 79.5C106.015 94.1174 94.0964 106.003 79.5177 106.003ZM131.448 37.0669C131.448 42.3533 127.191 46.5753 121.941 46.5753C116.656 46.5753 112.435 42.3178 112.435 37.0669C112.435 31.816 116.692 27.5585 121.941 27.5585C127.191 27.5585 131.448 31.816 131.448 37.0669ZM158.441 46.7172C157.838 33.9802 154.93 22.6978 145.601 13.4023C136.307 4.10672 125.027 1.19742 112.293 0.558797C99.1688 -0.186266 59.8312 -0.186266 46.7068 0.558797C34.0081 1.16194 22.7282 4.07124 13.3993 13.3668C4.07033 22.6623 1.19716 33.9447 0.558673 46.6817C-0.186224 59.8091 -0.186224 99.1555 0.558673 112.283C1.16168 125.02 4.07033 136.302 13.3993 145.598C22.7282 154.893 33.9726 157.803 46.7068 158.441C59.8312 159.186 99.1688 159.186 112.293 158.441C125.027 157.838 136.307 154.929 145.601 145.598C154.894 136.302 157.803 125.02 158.441 112.283C159.186 99.1555 159.186 59.8445 158.441 46.7172ZM141.486 126.368C138.719 133.322 133.363 138.679 126.375 141.482C115.911 145.633 91.0814 144.675 79.5177 144.675C67.9541 144.675 43.0887 145.598 32.6602 141.482C25.7078 138.715 20.3516 133.357 17.5494 126.368C13.3993 115.902 14.357 91.0662 14.357 79.5C14.357 67.9338 13.4347 43.0629 17.5494 32.632C20.3162 25.6781 25.6723 20.3207 32.6602 17.5179C43.1242 13.3668 67.9541 14.3247 79.5177 14.3247C91.0814 14.3247 115.947 13.4023 126.375 17.5179C133.328 20.2852 138.684 25.6426 141.486 32.632C145.636 43.0984 144.678 67.9338 144.678 79.5C144.678 91.0662 145.636 115.937 141.486 126.368Z" fill="#B3156B"/>
</svg>
