<svg width="42" height="42" viewBox="0 0 42 42" fill="none" xmlns="http://www.w3.org/2000/svg">
<path d="M18.5146 41.5629C16.7626 40.5078 15.5591 39.1484 15.0307 37.6279C14.6933 36.657 14.8165 35.7445 15.4264 34.7021C15.7705 34.114 17.2214 32.6537 18.0572 32.0547C18.4037 31.806 18.6786 31.5686 18.6677 31.5265C18.6572 31.4845 18.3614 31.2743 18.0117 31.0551C16.7874 30.2946 15.6366 29.3202 15.0214 28.5223C14.7635 28.1895 14.4603 27.5268 14.3499 27.0578C14.0374 25.7309 15.1203 23.4994 16.5596 22.5039C16.6699 22.4268 16.7437 22.3533 16.7238 22.3358C16.7028 22.3358 16.2814 22.2237 15.7848 22.1256C13.0684 21.5746 10.1542 20.72 8.99144 20.1333C7.46208 19.3616 6.52359 18.3287 6.53598 17.4309C6.54648 16.7356 7.21862 15.862 8.11165 15.3857C9.26889 14.7685 10.9586 14.4981 14.2224 14.4077C16.4439 14.3482 17.1025 14.3727 17.6966 14.6074C18.1583 14.779 18.321 15.0329 18.2689 15.4957C18.2174 15.9528 18.0099 16.2365 17.5669 16.4561C17.2474 16.6137 17.0887 16.6277 15.8432 16.6207C13.5313 16.6207 11.2253 16.8309 10.4076 17.1577C10.135 17.2663 10.0937 17.3118 10.1738 17.4099C10.4405 17.7321 12.6075 18.5945 14.5537 19.1546C16.0861 19.5956 19.7696 20.5 19.8217 20.4478C19.8427 20.4128 19.8357 18.8008 19.8042 16.8379L19.744 13.2697L19.1396 13.2241C18.703 13.1891 18.3768 13.1051 17.9643 12.9159L17.3934 12.6532L17.0002 12.8494C16.6575 13.021 16.4903 13.0455 15.6987 13.0455C14.8207 13.0455 14.7707 13.0455 14.1947 12.7513L13.5989 12.4536L13.0919 12.6672C12.6406 12.8564 12.4767 12.8809 11.5983 12.8809C10.649 12.8809 10.5909 12.8809 10.0644 12.6112L9.51728 12.3415L8.99911 12.5271C8.56938 12.6812 8.3129 12.7128 7.496 12.7128C6.40242 12.7124 5.97836 12.5972 5.19376 12.0798C4.80061 11.8206 4.75798 11.8136 3.88448 11.8031C2.85355 11.8031 2.21487 11.628 1.5476 11.1982C1.10537 10.9145 0.30093 10.0899 0.11515 9.73019L0 9.50602H0.998411C3.38895 9.47099 5.80014 8.56694 8.39907 6.70209C9.47868 5.92729 10.1327 5.37492 11.5878 4.00816C12.3033 3.33634 13.0605 2.66557 13.2704 2.51775C14.3893 1.72999 15.1097 2.03858 16.2683 3.8015C16.6438 4.37279 17.1092 4.98296 17.3027 5.15775C17.8015 5.60785 18.4485 5.88246 19.1233 5.9308C19.6527 5.96933 19.6851 5.96582 19.6851 5.79769C19.6851 5.69261 19.5969 5.58052 19.4555 5.50697C19.0801 5.31432 18.5566 4.75318 18.328 4.30168C17.566 2.79692 18.2097 0.985314 19.7673 0.252196C20.2315 0.0350272 20.3915 0 20.9985 0C21.6056 0 21.7655 0.0350272 22.2297 0.252196C23.1859 0.702294 23.8106 1.53734 23.9478 2.54928C24.0238 3.10866 23.9198 3.8029 23.6962 4.2537C23.4988 4.64915 22.8652 5.33428 22.5374 5.50697C22.4002 5.58052 22.3116 5.69261 22.3116 5.79769C22.3116 5.96232 22.3431 5.96933 22.8869 5.9308C23.5805 5.88176 24.3342 5.54094 24.7908 5.07158C24.9581 4.89995 25.4013 4.29818 25.7758 3.73529C26.6074 2.48518 27.0239 2.13631 27.685 2.13631C28.2545 2.13631 28.701 2.40952 29.7361 3.38993C31.2649 4.83865 32.2488 5.69822 33.1718 6.39105C35.9414 8.46991 38.4949 9.48535 41 9.50392H42L41.8831 9.73159C41.6958 10.0938 40.8929 10.9176 40.449 11.2027C39.7817 11.6311 39.1431 11.7964 38.1122 11.8073C37.2387 11.8073 37.196 11.8423 36.8029 12.084C36.0183 12.6 35.5942 12.7166 34.5006 12.7173C33.6795 12.7177 33.428 12.6823 32.9891 12.5282L32.4626 12.339L31.9264 12.6122C31.4073 12.8749 31.3585 12.8854 30.4009 12.8854C29.5197 12.8854 29.3563 12.8504 28.9047 12.6718L28.3978 12.4581L27.8019 12.7558C27.2259 13.0431 27.1759 13.0501 26.2979 13.0501C25.5063 13.0501 25.3392 13.015 24.9965 12.8539L24.6033 12.6578L24.0323 12.9205C23.6201 13.1096 23.2936 13.1972 22.8578 13.2287L22.2543 13.2742L22.2007 14.5086C22.1727 15.1874 22.1472 16.7903 22.1472 18.0709C22.1472 20.0299 22.1647 20.3988 22.2641 20.3988C22.5077 20.3988 27.2419 19.1651 28.2553 18.8376C30.0853 18.246 31.6794 17.4943 31.5496 17.2841C31.4715 17.158 30.6299 16.9479 29.6986 16.8197C29.1434 16.7426 27.8759 16.6761 26.6206 16.6516C24.6288 16.6165 24.4619 16.6025 24.1172 16.4309C23.8557 16.3013 23.6907 16.1437 23.5526 15.8922C23.379 15.5734 23.3678 15.5002 23.4521 15.2189C23.6593 14.5261 24.1676 14.387 26.4526 14.3976C30.9879 14.4326 33.1553 14.8368 34.3643 15.9247C34.8247 16.3388 35.1986 17.0263 35.1974 17.4558C35.1963 17.8215 34.8722 18.4964 34.4988 18.9101C33.4101 20.1161 30.5058 21.2142 25.9847 22.1291C25.4542 22.2377 25.0202 22.3428 25.0202 22.3673C25.0202 22.4023 25.2197 22.5669 25.4636 22.7578C26.2556 23.3768 26.9011 24.3659 27.2386 25.478C27.849 27.4893 26.7589 29.1625 23.5138 31.1962L22.9513 31.5486L23.3397 31.8148C25.2541 33.1329 26.5884 34.7693 26.8332 36.0993C27.1636 37.8948 25.5394 40.2574 22.9785 41.7058L22.4593 42L22.6262 41.7163C23.9937 39.3968 24.5889 37.8906 24.5107 36.947C24.4645 36.3883 24.0786 35.5862 23.5519 34.9529C23.0987 34.4086 22.0684 33.5077 21.9891 33.5872C21.9646 33.6222 21.9226 34.9522 21.8988 36.5638C21.8512 39.7891 21.8435 39.8371 21.3482 40.0725C20.9899 40.2441 20.5975 40.1775 20.3415 39.9043C20.0832 39.6276 20.0265 38.9085 20.0191 35.8177C20.016 34.4737 19.9911 33.3739 19.9635 33.3739C19.9355 33.3739 19.6793 33.5595 19.3932 33.7882C18.6066 34.4145 17.8311 35.2976 17.5309 35.9081C17.2884 36.4016 17.2639 36.5204 17.266 37.1922C17.2676 37.7897 17.3104 38.0468 17.4875 38.5218C17.8043 39.3716 18.4106 40.5604 19.1253 41.732C19.2149 41.8792 19.2755 41.9982 19.2601 41.9982C19.2461 41.9982 18.9099 41.8056 18.516 41.5671L18.5146 41.5629ZM19.8883 23.8608C19.8603 23.7137 19.8169 23.5946 19.7885 23.5946C19.7605 23.5946 19.4354 23.7417 19.0671 23.9204C17.7709 24.5481 17.1693 25.3288 17.081 26.498C17.0383 27.063 17.053 27.1474 17.2515 27.4865C17.5133 27.9334 17.8907 28.2476 19.0271 28.9639L19.889 29.5072L19.9135 26.8185C19.9275 25.3397 19.9149 24.0076 19.8883 23.8608ZM23.1695 28.6491C24.1368 28.0098 24.5969 27.5023 24.6186 27.0504C24.6753 25.8739 24.3813 25.1201 23.6366 24.5316C23.2287 24.2094 22.1626 23.6244 22.1069 23.692C22.0964 23.692 22.0646 24.9863 22.0376 26.538C21.9939 29.0669 22.0019 29.3538 22.116 29.3097C22.186 29.2746 22.6603 28.9839 23.1695 28.6491Z" fill="#AC1565"/>
</svg>
