<svg width="29" height="39" viewBox="0 0 29 39" fill="none" xmlns="http://www.w3.org/2000/svg">
<g clip-path="url(#clip0_1_35)">
<path d="M18.5512 23.4112C18.489 24.598 18.1919 25.7412 18.4251 26.7605C18.9432 29.0172 18.6341 31.2757 18.7688 33.5255C18.8137 34.2708 18.6082 34.5273 17.8223 34.5221C12.9899 34.4837 8.15567 34.5099 3.3232 34.4977C1.33011 34.4924 0.0123202 33.1817 0.00886597 31.171C-0.00495095 23.8754 0.000230393 16.5781 0.00541174 9.28075C0.00541174 9.0556 0.0451354 8.83219 0.0744964 8.51628C1.6859 8.51628 3.26102 8.51628 4.83615 8.51628C7.14358 8.51454 8.40265 7.24392 8.40956 4.90165C8.41474 3.30988 8.40956 1.71812 8.40956 0.0513009C8.81888 0.032102 9.12458 0.00592161 9.43028 0.00592161C14.4078 0.00417626 19.3854 0.0024309 24.3612 0.00592161C26.5529 0.00592161 27.8638 1.31319 27.8655 3.51758C27.8724 9.0713 27.869 14.6233 27.8655 20.177C27.8655 20.4266 27.8396 20.6744 27.8189 21.0253C27.4614 20.8402 27.1902 20.6971 26.9173 20.5592C24.6099 19.3881 21.9778 19.7634 20.1367 21.5838C19.7066 22.0079 19.2835 22.1702 18.6945 22.1667C14.2645 22.1458 9.83443 22.1562 5.40265 22.1562C5.11422 22.1562 4.82752 22.1562 4.53909 22.1615C4.09004 22.172 3.60299 22.2034 3.61854 22.8108C3.63408 23.4216 4.12976 23.4129 4.57363 23.4146C8.94669 23.4146 13.3197 23.4164 17.6928 23.4181C18.0002 23.4181 18.3094 23.4181 18.5495 23.4181L18.5512 23.4112ZM13.9018 17.8906C16.8931 17.8906 19.8845 17.8906 22.8759 17.8906C23.1056 17.8906 23.3698 17.9534 23.5564 17.8592C23.7843 17.7457 24.1211 17.4752 24.1004 17.3129C24.0693 17.0668 23.8068 16.7963 23.5736 16.6479C23.4061 16.5414 23.1263 16.6078 22.8966 16.6078C16.8845 16.6078 10.8724 16.6078 4.86206 16.6078C4.65999 16.6078 4.41301 16.5397 4.26793 16.6322C4.01232 16.798 3.81888 17.0633 3.59954 17.2867C3.81197 17.4857 3.99678 17.7387 4.24548 17.8662C4.43028 17.9604 4.69626 17.8923 4.92596 17.8923C7.91733 17.8923 10.9087 17.8923 13.9001 17.8923L13.9018 17.8906ZM13.926 11.1012C10.9657 11.1012 8.00714 11.0872 5.04686 11.1134C4.51146 11.1186 3.6289 10.801 3.64272 11.7487C3.65481 12.5917 4.48728 12.3526 5.01577 12.3543C10.9346 12.3683 16.8552 12.3648 22.774 12.3613C23.0607 12.3613 23.3802 12.4084 23.622 12.295C23.8379 12.1937 24.1004 11.897 24.0918 11.6963C24.0831 11.4974 23.793 11.2513 23.5702 11.1361C23.3854 11.0418 23.1194 11.1012 22.8897 11.1012C19.9018 11.1012 16.9121 11.1012 13.9242 11.1012H13.926ZM17.6134 6.00122C19.4545 6.00122 21.2973 6.03089 23.1367 5.97504C23.4735 5.96457 24.0469 5.64168 24.0797 5.40082C24.1695 4.75504 23.5892 4.74806 23.1194 4.74806C19.4078 4.74631 15.698 4.74631 11.9864 4.74806C11.5477 4.74806 11.0348 4.7306 11.0158 5.33799C10.995 6.00646 11.5339 6.00122 12.0037 6.00297C13.8742 6.0082 15.7429 6.00471 17.6134 6.00297V6.00122ZM10.1781 28.4029C12.0158 28.4029 13.8552 28.4029 15.6928 28.4029C16.1626 28.4029 16.7083 28.4343 16.7239 27.785C16.7394 27.141 16.204 27.1165 15.7273 27.1165C12.0503 27.1131 8.37329 27.1131 4.69626 27.1148C4.19885 27.1148 3.59436 27.1043 3.62026 27.792C3.64617 28.4744 4.2593 28.4029 4.7498 28.4029C6.55982 28.4029 8.36983 28.4029 10.1781 28.4029Z" fill="#AC1565"/>
<path d="M19.4298 25.8316C19.4488 23.1385 21.644 20.969 24.302 21.0144C26.9359 21.0598 29.0067 23.2188 28.9998 25.9118C28.9929 28.5753 26.8599 30.7238 24.2226 30.7238C21.5524 30.7238 19.4108 28.5386 19.4298 25.8316ZM24.2295 28.4129C25.6112 28.4094 26.758 27.2488 26.7493 25.8612C26.7407 24.4545 25.6112 23.3322 24.2105 23.3374C22.8184 23.3427 21.6837 24.4876 21.6889 25.8822C21.6941 27.275 22.8391 28.4147 24.2295 28.4129Z" fill="#AC1565"/>
<path d="M28.4993 30.0957V39.0023C28.1522 38.6445 27.9518 38.4752 27.7964 38.2727C26.8482 37.0318 25.919 35.7751 24.9656 34.5394C24.3577 33.7522 24.0658 33.7644 23.4492 34.5725C22.5909 35.7 21.7428 36.8363 20.8862 37.9655C20.6634 38.2587 20.4233 38.538 20.0054 38.7771V30.1585C22.8068 32.438 25.6099 32.4519 28.4976 30.0975L28.4993 30.0957Z" fill="#AC1565"/>
<path d="M0.307617 7.00673C2.50451 4.76395 4.68067 2.54211 6.89138 0.287109C6.89138 1.89807 7.01573 3.51602 6.84648 5.10255C6.73594 6.1358 5.91902 6.90899 4.83611 6.9823C3.32662 7.08353 1.80503 7.00848 0.307617 7.00848V7.00673Z" fill="#AC1565"/>
</g>
<defs>
<clipPath id="clip0_1_35">
<rect width="29" height="39" fill="white"/>
</clipPath>
</defs>
</svg>
