<svg width="35" height="47" viewBox="0 0 35 47" fill="none" xmlns="http://www.w3.org/2000/svg">
<g clip-path="url(#clip0_1_44)">
<path d="M7.62603 35.0247C6.04212 35.2196 4.70277 34.8008 3.51016 33.9242C1.79246 32.6621 0.919219 30.9378 0.912026 28.7977C0.899079 25.3087 0.906272 21.8197 0.912026 18.3307C0.912026 18.0289 0.975325 17.7257 1.01561 17.3545C0.136614 17.0859 -0.0273877 16.3653 0.00282316 15.4988C0.0387885 14.4894 0.00282316 13.4785 0.0128934 12.4677C0.0215251 11.529 0.553812 10.9383 1.36663 10.9441C2.16937 10.9499 2.72755 11.5521 2.74194 12.4763C2.7592 13.5103 2.72899 14.5457 2.75201 15.5797C2.77071 16.4 2.5391 17.0484 1.77663 17.3228C1.77663 18.3697 1.77663 19.3705 1.77663 20.3698C1.77663 23.0891 1.77088 25.8083 1.77951 28.5262C1.78958 31.6873 3.70293 33.8145 6.84055 34.177C7.07504 34.2044 7.30522 34.2679 7.62315 34.3315C7.62315 34.0412 7.62315 33.7668 7.62315 33.4925C7.62315 24.9506 7.62315 16.4086 7.62315 7.86673C7.62315 6.39085 8.24895 5.52727 9.61275 5.25C9.61275 5.80887 9.61275 6.34608 9.61275 6.88184C9.61275 7.50714 9.60844 8.13244 9.61419 8.75919C9.62858 10.0791 10.4486 10.9066 11.7692 10.9326C12.1505 10.9398 12.5317 10.9326 12.8914 10.9326C13.9272 13.9046 15.3025 15.1205 17.5582 15.0974C19.7478 15.0757 21.1576 13.7977 22.097 10.9311C22.497 10.9311 22.9242 10.9456 23.3486 10.9282C24.5398 10.8791 25.3584 10.0459 25.3756 8.84728C25.3915 7.67177 25.3785 6.49627 25.3785 5.32076C26.3208 5.3352 27.1509 6.08614 27.3178 7.05947C27.3739 7.38873 27.371 7.72954 27.371 8.06601C27.3739 16.5357 27.3724 25.0054 27.3724 33.4751C27.3724 33.7394 27.3724 34.0022 27.3724 34.2708C29.1462 34.2001 30.7158 33.7336 31.8997 32.3328C32.8118 31.2541 33.2089 30.0006 33.2118 28.6085C33.2189 25.2163 33.2118 21.8226 33.2161 18.4304C33.2161 18.0982 33.2535 17.7675 33.2779 17.3704C32.3961 17.0426 32.2047 16.2873 32.2421 15.3732C32.281 14.436 32.2436 13.4973 32.2536 12.5586C32.2637 11.5795 32.7974 10.9528 33.6146 10.9383C34.4418 10.9239 34.9769 11.5333 34.9856 12.524C34.9942 13.5103 34.9683 14.4981 34.9942 15.483C35.0172 16.3408 34.8863 17.0845 33.9843 17.3372C34.0246 17.7314 34.085 18.0564 34.0864 18.3827C34.0922 21.7995 34.0951 25.2163 34.0864 28.633C34.0778 32.174 31.7401 34.7561 28.2356 35.0925C27.9637 35.1185 27.6832 35.0478 27.3724 35.0174C27.3724 37.006 27.3782 39.0017 27.371 40.9975C27.3652 42.781 26.4517 43.6821 24.6592 43.6835C19.8888 43.6864 15.1198 43.685 10.3493 43.6835C8.51941 43.6835 7.62747 42.7824 7.62459 40.9383C7.62171 38.9671 7.62459 36.9944 7.62459 35.0232L7.62603 35.0247ZM14.3357 21.4255C15.652 21.4255 16.9684 21.411 18.2847 21.4327C18.8069 21.4414 19.1249 21.3619 19.1939 20.7236C19.2759 19.964 19.8427 19.5308 20.5074 19.551C21.1878 19.5712 21.582 20.0088 21.7791 20.7872C21.841 21.0327 22.1474 21.3735 22.3675 21.3937C23.1746 21.4659 23.9946 21.4486 24.8045 21.4024C25.0002 21.3908 25.1814 21.1395 25.3684 20.998C25.1843 20.8247 25.0189 20.5359 24.8131 20.5012C24.347 20.4247 23.8579 20.4478 23.3817 20.4781C22.9487 20.5056 22.7013 20.3929 22.5171 19.9482C22.1546 19.0745 21.441 18.6051 20.4915 18.5965C19.5392 18.5878 18.8199 19.0571 18.4487 19.9222C18.2487 20.3886 17.9884 20.4839 17.5352 20.4796C15.2622 20.4608 12.9877 20.4608 10.7133 20.481C10.309 20.4854 9.65304 20.2644 9.65879 20.972C9.66311 21.632 10.2889 21.4081 10.6744 21.4154C11.8944 21.4385 13.1158 21.424 14.3357 21.424V21.4255ZM17.423 42.2207C18.9767 42.2207 20.5304 42.2207 22.0855 42.2207C22.4423 42.2207 22.8796 42.2784 22.884 41.7528C22.8883 41.2343 22.4567 41.2603 22.0956 41.2603C19.0357 41.2574 15.9757 41.2574 12.9158 41.2603C12.5576 41.2603 12.1203 41.2242 12.1159 41.7412C12.1116 42.2597 12.5403 42.2221 12.9043 42.2221C14.4105 42.2221 15.9168 42.2221 17.423 42.2221V42.2207ZM11.2427 35.1185C11.2427 35.1185 11.2427 35.12 11.2427 35.1214C11.5995 35.1214 11.9706 35.1777 12.3102 35.0998C12.5144 35.0535 12.6712 34.7965 12.8496 34.6333C12.677 34.4701 12.5144 34.1784 12.3317 34.1654C11.598 34.112 10.8557 34.1163 10.1191 34.164C9.94939 34.1741 9.64584 34.4672 9.66886 34.5755C9.71058 34.7777 9.92062 35.0521 10.1062 35.094C10.4687 35.1748 10.8629 35.1185 11.2441 35.1185H11.2427ZM11.2758 39.0422C11.6326 39.0422 11.998 39.0898 12.3432 39.0234C12.5288 38.9873 12.677 38.7577 12.841 38.6162C12.6856 38.4371 12.5403 38.1136 12.3735 38.1021C11.6167 38.0472 10.8514 38.053 10.0933 38.1021C9.93069 38.1122 9.78395 38.3938 9.63146 38.5512C9.79833 38.7158 9.94507 38.9815 10.1378 39.022C10.5033 39.0985 10.8946 39.0436 11.2758 39.0422ZM11.1751 27.2351C11.5563 27.2351 11.9476 27.2871 12.313 27.2149C12.513 27.1745 12.6698 26.9218 12.8468 26.7644C12.6756 26.5997 12.513 26.3066 12.3317 26.2936C11.598 26.2401 10.8557 26.2401 10.122 26.295C9.94795 26.308 9.7969 26.6127 9.63433 26.7831C9.81416 26.9348 9.97528 27.1687 10.1796 27.2164C10.4961 27.29 10.8413 27.2351 11.1751 27.2351ZM11.2542 30.2447C10.8715 30.2447 10.4817 30.1999 10.1105 30.2634C9.93356 30.2938 9.79258 30.5306 9.63433 30.6736C9.77963 30.8281 9.91774 31.1068 10.0731 31.1169C10.8341 31.1646 11.6024 31.166 12.3634 31.1212C12.5317 31.1111 12.6856 30.8526 12.8453 30.7082C12.6727 30.5537 12.5216 30.3053 12.3245 30.2634C11.9821 30.1898 11.6124 30.2432 11.2542 30.2447ZM20.0283 21.8457C20.0283 22.1548 19.9722 22.4132 20.0456 22.627C20.1089 22.8133 20.3189 22.9505 20.4656 23.1093C20.6167 22.9591 20.8339 22.832 20.9015 22.6501C20.9807 22.4392 20.962 22.1735 20.926 21.9396C20.8641 21.5396 21.1835 20.868 20.4872 20.8536C19.7593 20.8377 20.1333 21.5309 20.0297 21.8443L20.0283 21.8457Z" fill="#AC1565"/>
<path d="M17.5094 9.96439C15.6637 9.96439 13.8194 9.96727 11.9737 9.96294C10.922 9.96005 10.5724 9.6308 10.5667 8.5997C10.5566 6.17071 10.5552 3.74027 10.5667 1.31128C10.571 0.349501 10.9177 0.00869058 11.8787 0.00724647C15.6162 2.59173e-05 19.3552 2.59173e-05 23.0927 0.00724647C24.0997 0.00869058 24.4191 0.333615 24.4234 1.36327C24.432 3.79226 24.4335 6.2227 24.422 8.65169C24.4177 9.62213 24.0709 9.9615 23.1143 9.96583C21.2455 9.97305 19.3768 9.96872 17.5066 9.96727L17.5094 9.96439ZM17.4922 4.22116C16.1039 4.22116 14.7157 4.20239 13.3303 4.23993C13.0915 4.24715 12.8584 4.49698 12.6239 4.63562C12.8627 4.80025 13.1001 5.1064 13.3403 5.10929C16.1154 5.1425 18.8905 5.13095 21.6656 5.1295C22.0195 5.1295 22.4223 5.0934 22.336 4.63129C22.3043 4.45799 21.8958 4.24571 21.6541 4.23849C20.2673 4.20094 18.879 4.21972 17.4922 4.21972V4.22116Z" fill="#AC1565"/>
<path d="M14.0249 10.9688H20.9475C20.9087 12.6612 19.4226 14.0591 17.6315 14.1184C15.7469 14.1805 14.2263 12.8808 14.0249 10.9688Z" fill="#AC1565"/>
<path d="M6.60185 13.0684V15.2273H3.69873V13.0684H6.60185Z" fill="#AC1565"/>
<path d="M28.3926 15.2175V13.0586H31.2943V15.2175H28.3926Z" fill="#AC1565"/>
<path d="M12.8743 46.9995H11.417V44.7207H12.8743V46.9995Z" fill="#AC1565"/>
<path d="M23.56 46.9951H22.1099V44.7148H23.56V46.9951Z" fill="#AC1565"/>
</g>
<defs>
<clipPath id="clip0_1_44">
<rect width="35" height="47" fill="white"/>
</clipPath>
</defs>
</svg>
