<svg width="37" height="41" viewBox="0 0 37 41" fill="none" xmlns="http://www.w3.org/2000/svg">
<g clip-path="url(#clip0_2_6)">
<path d="M20.6439 28.4266C21.492 29.7713 22.3109 31.0658 23.0154 32.1836C22.6539 33.0484 22.2365 33.7023 22.1168 34.4062C21.8244 36.1305 23.1271 37.6543 24.8578 37.7624C26.6498 37.8732 28.1226 36.4442 28.0509 34.6593C27.9817 32.9456 26.4557 31.5667 24.7382 31.8541C23.914 31.9938 23.5312 31.7882 23.1616 31.1211C22.606 30.1219 21.9679 29.1701 21.3724 28.192C21.3299 28.1234 21.3405 28.0233 21.3299 27.9389C25.2114 24.087 24.2357 19.3993 20.4339 16.7233C20.7795 16.1512 21.1278 15.5606 21.4867 14.9779C21.8323 14.419 22.1886 13.8706 22.3906 13.549H27.3437C29.3802 17.8833 31.9112 22.3706 32.6396 27.4828C33.7057 34.944 25.9638 42.0415 18.2193 40.8735C12.0991 39.9507 7.63797 35.2631 7.08764 29.1622C7.03713 28.598 7.04776 28.018 7.11688 27.4538C7.33489 25.6531 8.35048 24.812 10.1849 24.9148C10.4269 24.928 10.7273 25.1574 10.8709 25.3736C13.5667 29.3362 15.8877 30.0955 20.6386 28.4266H20.6439Z" fill="#AC1565"/>
<path d="M7.72314 24.5879C10.7566 15.8822 15.2417 8.05447 19.8863 0C21.0375 1.98264 22.0451 3.72008 23.1006 5.54189C22.7603 5.81873 22.4572 6.05337 22.1648 6.3012C20.45 7.74863 20.0272 10.0635 21.3486 11.8457C21.9574 12.6683 21.8324 13.2009 21.3353 13.9127C20.7849 14.701 20.3117 15.5421 20.0246 16.0061C18.4214 16.0061 17.0895 15.8426 15.816 16.0377C12.7692 16.5044 10.4748 19.1936 10.302 22.2678C10.1824 24.406 10.1744 24.4139 7.72314 24.5852V24.5879Z" fill="#AC1565"/>
<path d="M3.88449 8.84375C4.74854 10.2516 5.47169 11.2957 6.05393 12.4109C6.62819 13.5103 6.38891 14.5544 5.4132 15.3585C4.53054 16.0862 3.23845 16.0888 2.35047 15.3638C1.37741 14.5676 1.10358 13.5367 1.69113 12.4267C2.28135 11.3168 3.00183 10.2727 3.88449 8.84375Z" fill="#AC1565"/>
<path d="M34.4689 11.332C35.3515 12.7531 36.096 13.8341 36.7101 14.9836C37.3216 16.1252 36.9228 17.1481 35.9391 17.8837C34.9926 18.5876 33.9318 18.5956 32.9907 17.86C32.0708 17.1402 31.664 16.1594 32.2356 15.0653C32.8524 13.8789 33.6075 12.761 34.4689 11.3347V11.332Z" fill="#AC1565"/>
<path d="M2.25983 28.5958C0.994323 28.5852 0 27.5834 0 26.3178C0 25.0497 0.986348 24.0531 2.25451 24.0373C3.57053 24.0215 4.626 25.0813 4.58878 26.3758C4.55421 27.615 3.51469 28.6063 2.25717 28.5931L2.25983 28.5958Z" fill="#AC1565"/>
<path d="M25.0124 37.0585C23.7628 37.0374 22.726 35.9986 22.7339 34.7779C22.7419 33.5467 23.7814 32.5237 25.031 32.5158C26.3364 32.5079 27.4237 33.5941 27.3759 34.8649C27.3307 36.0882 26.2619 37.0795 25.0124 37.0585ZM26.4693 35.7218C26.7272 35.4634 26.6953 34.9229 26.791 34.509C26.9558 34.7594 27.118 35.0099 27.2828 35.2604C26.5889 35.6664 26.0918 36.1014 26.4693 35.7218Z" fill="#AC1565"/>
<path d="M32.369 1.64453C32.8502 2.44602 33.5335 3.16315 33.8153 4.0701C34.0971 4.97705 33.8711 6.14765 32.9459 6.54576C31.489 7.17324 30.4308 5.30397 30.827 4.08328C30.944 3.72208 32.4567 1.79481 32.369 1.64453Z" fill="#AC1565"/>
<path d="M10.2942 1.65234C10.8764 2.59621 11.7112 3.43725 12.0249 4.52348C12.3998 5.8259 11.0997 6.94114 9.79699 6.46393C8.55807 6.00782 8.48363 4.57884 9.02865 3.5638C9.15892 3.32388 10.3819 1.79471 10.2942 1.65234Z" fill="#AC1565"/>
<path d="M7.0984 25.3733C6.55604 25.6976 6.01634 26.0219 5.47398 26.3435C5.35701 26.1801 5.24003 26.0166 5.12305 25.8558C6.10939 25.2757 6.17054 25.165 6.77671 24.9277C6.88305 25.0754 6.99206 25.223 7.0984 25.3733Z" fill="#AC1565"/>
<path d="M17.0234 16.625C20.3519 16.6119 23.1298 19.3463 23.1191 22.626C23.1083 25.8714 20.4125 28.5633 17.1318 28.6055C13.7689 28.6501 11.023 25.9895 10.999 22.665H10.9961C10.9723 19.3352 13.6657 16.6355 17.0234 16.625ZM21.21 22.5859C21.1978 22.6525 21.1845 22.7182 21.1709 22.7832C20.6575 25.2278 19.1144 26.5643 16.2871 26.8457C16.2853 26.845 16.283 26.8445 16.2812 26.8438V26.8467C16.2831 26.8465 16.2853 26.8459 16.2871 26.8457C16.289 26.8465 16.2911 26.8469 16.293 26.8477C16.291 26.8479 16.2891 26.8484 16.2871 26.8486C17.8376 27.4939 19.2578 27.056 20.3359 25.8525C21.0348 25.0752 21.4487 24.2095 21.3652 23.1699C21.347 22.9393 21.304 22.6999 21.2344 22.4512C21.2269 22.4964 21.2181 22.5414 21.21 22.5859Z" fill="#AC1565"/>
<path d="M24.8418 6.00781C26.8145 5.98408 28.4845 7.65857 28.4473 9.62012C28.41 11.5395 26.7932 13.0842 24.8418 13.0684H24.8398C22.8698 13.0525 21.3225 11.5073 21.3252 9.55371C21.3281 7.62146 22.9039 6.03169 24.8418 6.00781ZM27.0938 9.23535C26.7269 10.6008 25.9827 11.5339 24.5049 11.7871H24.5068C24.5077 11.7877 24.5089 11.7885 24.5098 11.7891L24.5068 11.79H24.5098C25.5066 12.4623 26.1687 11.9199 26.7402 11.3584C27.2852 10.8232 27.6948 10.161 27.0967 9.23828L27.0957 9.23926C27.0949 9.23804 27.0945 9.23657 27.0938 9.23535Z" fill="#AC1565"/>
</g>
<defs>
<clipPath id="clip0_2_6">
<rect width="37" height="41" fill="white"/>
</clipPath>
</defs>
</svg>
