<svg width="224" height="53" viewBox="0 0 224 53" fill="none" xmlns="http://www.w3.org/2000/svg">
<path d="M0 26.6834V0H0.660742L20.9086 20.4471V0H23.9099V26.6834H23.2268L3.13572 6.48181V26.6834H0Z" fill="#AC1565"/>
<path d="M31.561 0H34.4302V26.6834H31.561V0Z" fill="#AC1565"/>
<path d="M43.9941 0H47.0276V10.0002L58.9205 0H62.9176L48.6812 11.9629L64.0785 26.6834H60.0703L47.0276 14.2397V26.654H43.9941V0Z" fill="#AC1565"/>
<path d="M67.9043 0.0180502H73.5509C75.691 -0.0493374 77.8331 0.0720553 79.9491 0.38064C81.5569 0.702645 83.0021 1.52439 84.051 2.71301C85.1398 3.96161 85.7074 5.53958 85.6479 7.15234C85.6913 8.49329 85.3294 9.81837 84.6041 10.9743C83.8585 12.0871 82.7649 12.9565 81.4729 13.4634C79.6882 14.0989 77.7859 14.3921 75.8785 14.3258L86.0758 26.6834H82.5167L72.3193 14.3258H70.7224V26.6834H67.9043V0.0180502ZM70.7328 2.62481V11.6701H75.6175C77.0302 11.7298 78.4431 11.5574 79.7925 11.1605C80.6529 10.8423 81.3837 10.2762 81.88 9.54351C82.3884 8.80187 82.6533 7.93625 82.6419 7.05434C82.6498 6.18983 82.3807 5.34308 81.8695 4.62398C81.3851 3.91597 80.6772 3.36776 79.8447 3.056C78.492 2.67566 77.0798 2.51654 75.6697 2.58561L70.7328 2.62481Z" fill="#AC1565"/>
<path d="M105.642 0L119.549 26.6834H116.333L111.646 17.9035H98.7932L94.1503 26.6834H90.8574L104.94 0H105.642ZM105.269 5.66667L100.165 15.3206H110.362L105.269 5.66667Z" fill="#AC1565"/>
<path d="M119.549 21.2765L122.041 19.9788C123.796 22.7734 125.82 24.1706 128.114 24.1706C129.081 24.1741 130.034 23.9687 130.886 23.5731C131.705 23.2129 132.389 22.6595 132.86 21.9767C133.304 21.3365 133.538 20.6041 133.539 19.8575C133.521 18.9539 133.174 18.0783 132.547 17.3555C131.111 15.7961 129.421 14.4251 127.531 13.2851C125.857 12.2911 124.326 11.1284 122.969 9.82146C121.968 8.71498 121.422 7.35196 121.415 5.94711C121.402 4.88886 121.719 3.84709 122.332 2.93163C122.944 2.02231 123.837 1.2787 124.91 0.784393C126.018 0.261709 127.262 -0.00816916 128.524 0.000188366C129.887 0.00964634 131.223 0.331783 132.396 0.93377C133.912 1.78672 135.212 2.89859 136.214 4.20131L133.82 5.76972C133.06 4.79811 132.106 3.95097 131.004 3.26772C130.24 2.86785 129.363 2.6579 128.47 2.66089C127.939 2.64298 127.409 2.71625 126.911 2.87649C126.413 3.03673 125.957 3.28075 125.568 3.59448C125.212 3.89034 124.932 4.24774 124.746 4.64342C124.561 5.0391 124.473 5.4642 124.489 5.89109C124.489 6.44478 124.625 6.99217 124.889 7.49685C125.253 8.13131 125.746 8.70374 126.345 9.18664C126.726 9.51028 127.988 10.3536 130.131 11.7166C132.143 12.8926 133.909 14.3577 135.351 16.0485C136.241 17.1717 136.733 18.4957 136.764 19.8575C136.769 20.7574 136.557 21.6483 136.141 22.473C135.725 23.2977 135.114 24.0381 134.348 24.6467C133.574 25.3101 132.654 25.832 131.642 26.1816C130.63 26.5312 129.548 26.7014 128.459 26.6819C126.739 26.6982 125.052 26.2691 123.616 25.4496C121.886 24.3681 120.489 22.935 119.549 21.2765Z" fill="#AC1565"/>
<path d="M170.238 0H173.446L183.069 20.6239L192.853 0H196.061L183.422 26.6834H182.791L170.238 0Z" fill="#AC1565"/>
<path d="M210.348 0L223.797 26.6834H220.686L216.154 17.9035H203.735L199.245 26.6834H196.061L209.679 0H210.348ZM209.987 5.66667L205.051 15.3206H214.912L209.987 5.66667Z" fill="#AC1565"/>
<path d="M155.414 26.6834C163.602 26.6834 170.239 20.7101 170.239 13.3417C170.239 5.97329 163.602 0 155.414 0C147.227 0 140.59 5.97329 140.59 13.3417C140.59 20.7101 147.227 26.6834 155.414 26.6834Z" fill="url(#paint0_radial_1_275)"/>
<path d="M56.92 47.0672C56.184 47.0672 55.5227 46.9019 54.936 46.5712C54.3493 46.2299 53.8853 45.7392 53.544 45.0992C53.2027 44.4592 53.032 43.6859 53.032 42.7792C53.032 41.8619 53.2027 41.0886 53.544 40.4592C53.896 39.8192 54.3653 39.3339 54.952 39.0032C55.5387 38.6726 56.1947 38.5072 56.92 38.5072C57.72 38.5072 58.4347 38.6886 59.064 39.0512C59.704 39.4032 60.2053 39.8992 60.568 40.5392C60.9307 41.1792 61.112 41.9259 61.112 42.7792C61.112 43.6219 60.9307 44.3686 60.568 45.0192C60.2053 45.6592 59.704 46.1606 59.064 46.5232C58.4347 46.8859 57.72 47.0672 56.92 47.0672ZM52.584 46.9872V35.1152H53.72V41.0672L53.56 42.7632L53.672 44.4592V46.9872H52.584ZM56.84 46.0592C57.4373 46.0592 57.9707 45.9259 58.44 45.6592C58.9093 45.3819 59.2827 44.9979 59.56 44.5072C59.8373 44.0059 59.976 43.4299 59.976 42.7792C59.976 42.1179 59.8373 41.5419 59.56 41.0512C59.2827 40.5606 58.9093 40.1819 58.44 39.9152C57.9707 39.6379 57.4373 39.4992 56.84 39.4992C56.2427 39.4992 55.704 39.6379 55.224 39.9152C54.7547 40.1819 54.3813 40.5606 54.104 41.0512C53.8373 41.5419 53.704 42.1179 53.704 42.7792C53.704 43.4299 53.8373 44.0059 54.104 44.5072C54.3813 44.9979 54.7547 45.3819 55.224 45.6592C55.704 45.9259 56.2427 46.0592 56.84 46.0592ZM67.7958 47.0672C66.9211 47.0672 66.1531 46.8859 65.4918 46.5232C64.8304 46.1499 64.3131 45.6432 63.9398 45.0032C63.5664 44.3526 63.3798 43.6112 63.3798 42.7792C63.3798 41.9472 63.5558 41.2112 63.9078 40.5712C64.2704 39.9312 64.7611 39.4299 65.3798 39.0672C66.0091 38.6939 66.7131 38.5072 67.4918 38.5072C68.2811 38.5072 68.9798 38.6886 69.5878 39.0512C70.2064 39.4032 70.6918 39.9046 71.0438 40.5552C71.3958 41.1952 71.5718 41.9366 71.5718 42.7792C71.5718 42.8326 71.5664 42.8912 71.5558 42.9552C71.5558 43.0086 71.5558 43.0672 71.5558 43.1312H64.2438V42.2832H70.9478L70.4998 42.6192C70.4998 42.0112 70.3664 41.4726 70.0998 41.0032C69.8438 40.5232 69.4918 40.1499 69.0438 39.8832C68.5958 39.6166 68.0784 39.4832 67.4918 39.4832C66.9158 39.4832 66.3984 39.6166 65.9398 39.8832C65.4811 40.1499 65.1238 40.5232 64.8678 41.0032C64.6118 41.4832 64.4838 42.0326 64.4838 42.6512V42.8272C64.4838 43.4672 64.6224 44.0326 64.8998 44.5232C65.1878 45.0032 65.5824 45.3819 66.0838 45.6592C66.5958 45.9259 67.1771 46.0592 67.8278 46.0592C68.3398 46.0592 68.8144 45.9686 69.2518 45.7872C69.6998 45.6059 70.0838 45.3286 70.4038 44.9552L71.0438 45.6912C70.6704 46.1392 70.2011 46.4806 69.6358 46.7152C69.0811 46.9499 68.4678 47.0672 67.7958 47.0672ZM79.7136 46.9872V45.1312L79.6656 44.8272V41.7232C79.6656 41.0086 79.463 40.4592 79.0576 40.0752C78.663 39.6912 78.071 39.4992 77.2816 39.4992C76.7376 39.4992 76.2203 39.5899 75.7296 39.7712C75.239 39.9526 74.823 40.1926 74.4816 40.4912L73.9696 39.6432C74.3963 39.2806 74.9083 39.0032 75.5056 38.8112C76.103 38.6086 76.7323 38.5072 77.3936 38.5072C78.4816 38.5072 79.319 38.7792 79.9056 39.3232C80.503 39.8566 80.8016 40.6726 80.8016 41.7712V46.9872H79.7136ZM76.8176 47.0672C76.1883 47.0672 75.639 46.9659 75.1696 46.7632C74.711 46.5499 74.359 46.2619 74.1136 45.8992C73.8683 45.5259 73.7456 45.0992 73.7456 44.6192C73.7456 44.1819 73.847 43.7872 74.0496 43.4352C74.263 43.0726 74.6043 42.7846 75.0736 42.5712C75.5536 42.3472 76.1936 42.2352 76.9936 42.2352H79.8896V43.0832H77.0256C76.215 43.0832 75.6496 43.2272 75.3296 43.5152C75.0203 43.8032 74.8656 44.1606 74.8656 44.5872C74.8656 45.0672 75.0523 45.4512 75.4256 45.7392C75.799 46.0272 76.3216 46.1712 76.9936 46.1712C77.6336 46.1712 78.183 46.0272 78.6416 45.7392C79.111 45.4406 79.4523 45.0139 79.6656 44.4592L79.9216 45.2432C79.7083 45.7979 79.335 46.2406 78.8016 46.5712C78.279 46.9019 77.6176 47.0672 76.8176 47.0672ZM88.1591 47.0672C87.4445 47.0672 86.8205 46.9339 86.2871 46.6672C85.7538 46.4006 85.3378 46.0006 85.0391 45.4672C84.7511 44.9339 84.6071 44.2672 84.6071 43.4672V38.5872H85.7431V43.3392C85.7431 44.2352 85.9618 44.9126 86.3991 45.3712C86.8471 45.8192 87.4711 46.0432 88.2711 46.0432C88.8578 46.0432 89.3645 45.9259 89.7911 45.6912C90.2285 45.4459 90.5591 45.0939 90.7831 44.6352C91.0178 44.1766 91.1351 43.6272 91.1351 42.9872V38.5872H92.2711V46.9872H91.1831V44.6832L91.3591 45.0992C91.0925 45.7179 90.6765 46.2032 90.1111 46.5552C89.5565 46.8966 88.9058 47.0672 88.1591 47.0672ZM98.8931 47.0672C98.1038 47.0672 97.4958 46.8539 97.0691 46.4272C96.6425 46.0006 96.4291 45.3979 96.4291 44.6192V36.7312H97.5651V44.5552C97.5651 45.0459 97.6878 45.4246 97.9331 45.6912C98.1891 45.9579 98.5518 46.0912 99.0211 46.0912C99.5225 46.0912 99.9385 45.9472 100.269 45.6592L100.669 46.4752C100.445 46.6779 100.173 46.8272 99.8531 46.9232C99.5438 47.0192 99.2238 47.0672 98.8931 47.0672ZM94.9251 39.5312V38.5872H100.125V39.5312H94.9251ZM103.445 50.1712C103.05 50.1712 102.672 50.1072 102.309 49.9792C101.957 49.8512 101.653 49.6592 101.397 49.4032L101.925 48.5552C102.138 48.7579 102.368 48.9126 102.613 49.0192C102.869 49.1366 103.152 49.1952 103.461 49.1952C103.834 49.1952 104.154 49.0886 104.421 48.8752C104.698 48.6726 104.96 48.3099 105.205 47.7872L105.749 46.5552L105.877 46.3792L109.333 38.5872H110.453L106.245 47.9952C106.01 48.5392 105.749 48.9712 105.461 49.2912C105.184 49.6112 104.88 49.8352 104.549 49.9632C104.218 50.1019 103.85 50.1712 103.445 50.1712ZM105.685 47.2272L101.813 38.5872H102.997L106.421 46.2992L105.685 47.2272ZM121.328 47.0672C120.496 47.0672 119.75 46.8859 119.088 46.5232C118.438 46.1499 117.926 45.6432 117.552 45.0032C117.179 44.3526 116.992 43.6112 116.992 42.7792C116.992 41.9366 117.179 41.1952 117.552 40.5552C117.926 39.9152 118.438 39.4139 119.088 39.0512C119.75 38.6886 120.496 38.5072 121.328 38.5072C122.043 38.5072 122.688 38.6459 123.264 38.9232C123.84 39.2006 124.294 39.6166 124.624 40.1712L123.776 40.7472C123.488 40.3206 123.131 40.0059 122.704 39.8032C122.278 39.6006 121.814 39.4992 121.312 39.4992C120.715 39.4992 120.176 39.6379 119.696 39.9152C119.216 40.1819 118.838 40.5606 118.56 41.0512C118.283 41.5419 118.144 42.1179 118.144 42.7792C118.144 43.4406 118.283 44.0166 118.56 44.5072C118.838 44.9979 119.216 45.3819 119.696 45.6592C120.176 45.9259 120.715 46.0592 121.312 46.0592C121.814 46.0592 122.278 45.9579 122.704 45.7552C123.131 45.5526 123.488 45.2432 123.776 44.8272L124.624 45.4032C124.294 45.9472 123.84 46.3632 123.264 46.6512C122.688 46.9286 122.043 47.0672 121.328 47.0672ZM127.531 46.9872V35.1152H128.667V46.9872H127.531ZM132.628 46.9872V38.5872H133.764V46.9872H132.628ZM133.204 36.7312C132.969 36.7312 132.772 36.6512 132.612 36.4912C132.452 36.3312 132.372 36.1392 132.372 35.9152C132.372 35.6912 132.452 35.5046 132.612 35.3552C132.772 35.1952 132.969 35.1152 133.204 35.1152C133.438 35.1152 133.636 35.1899 133.796 35.3392C133.956 35.4886 134.036 35.6752 134.036 35.8992C134.036 36.1339 133.956 36.3312 133.796 36.4912C133.646 36.6512 133.449 36.7312 133.204 36.7312ZM142.013 38.5072C142.695 38.5072 143.293 38.6406 143.805 38.9072C144.327 39.1632 144.733 39.5579 145.021 40.0912C145.319 40.6246 145.469 41.2966 145.469 42.1072V46.9872H144.333V42.2192C144.333 41.3339 144.109 40.6672 143.661 40.2192C143.223 39.7606 142.605 39.5312 141.805 39.5312C141.207 39.5312 140.685 39.6539 140.237 39.8992C139.799 40.1339 139.458 40.4806 139.213 40.9392C138.978 41.3872 138.861 41.9312 138.861 42.5712V46.9872H137.725V38.5872H138.813V40.8912L138.637 40.4592C138.903 39.8512 139.33 39.3766 139.917 39.0352C140.503 38.6832 141.202 38.5072 142.013 38.5072ZM149.337 46.9872V38.5872H150.473V46.9872H149.337ZM149.913 36.7312C149.678 36.7312 149.481 36.6512 149.321 36.4912C149.161 36.3312 149.081 36.1392 149.081 35.9152C149.081 35.6912 149.161 35.5046 149.321 35.3552C149.481 35.1952 149.678 35.1152 149.913 35.1152C150.148 35.1152 150.345 35.1899 150.505 35.3392C150.665 35.4886 150.745 35.6752 150.745 35.8992C150.745 36.1339 150.665 36.3312 150.505 36.4912C150.356 36.6512 150.158 36.7312 149.913 36.7312ZM157.922 47.0672C157.09 47.0672 156.343 46.8859 155.682 46.5232C155.031 46.1499 154.519 45.6432 154.146 45.0032C153.773 44.3526 153.586 43.6112 153.586 42.7792C153.586 41.9366 153.773 41.1952 154.146 40.5552C154.519 39.9152 155.031 39.4139 155.682 39.0512C156.343 38.6886 157.09 38.5072 157.922 38.5072C158.637 38.5072 159.282 38.6459 159.858 38.9232C160.434 39.2006 160.887 39.6166 161.218 40.1712L160.37 40.7472C160.082 40.3206 159.725 40.0059 159.298 39.8032C158.871 39.6006 158.407 39.4992 157.906 39.4992C157.309 39.4992 156.77 39.6379 156.29 39.9152C155.81 40.1819 155.431 40.5606 155.154 41.0512C154.877 41.5419 154.738 42.1179 154.738 42.7792C154.738 43.4406 154.877 44.0166 155.154 44.5072C155.431 44.9979 155.81 45.3819 156.29 45.6592C156.77 45.9259 157.309 46.0592 157.906 46.0592C158.407 46.0592 158.871 45.9579 159.298 45.7552C159.725 45.5526 160.082 45.2432 160.37 44.8272L161.218 45.4032C160.887 45.9472 160.434 46.3632 159.858 46.6512C159.282 46.9286 158.637 47.0672 157.922 47.0672Z" fill="#AC1565"/>
<defs>
<radialGradient id="paint0_radial_1_275" cx="0" cy="0" r="1" gradientUnits="userSpaceOnUse" gradientTransform="translate(155.414 13.3417) scale(14.8241 13.3417)">
<stop stop-color="#F071AF"/>
<stop offset="0.29" stop-color="#D11A73"/>
<stop offset="0.72" stop-color="#B3156B"/>
<stop offset="1" stop-color="#92134E"/>
</radialGradient>
</defs>
</svg>
