<svg xmlns="http://www.w3.org/2000/svg" xmlns:xlink="http://www.w3.org/1999/xlink"><symbol id="sprite-arrow-slider" viewBox="0 0 34 30"><path d="m20.39.31 13.334 14a1 1 0 0 1 0 1.38l-13.333 14a1 1 0 0 1-1.448-1.38L30.667 16H1a1 1 0 0 1 0-2h29.667L18.943 1.69A1 1 0 1 1 20.39.31"/></symbol><use xlink:href="#sprite-arrow-slider" width="34" height="30" y="0"/><view id="sprite-arrow-slider-view" viewBox="0 0 34 30"/><symbol id="sprite-phone" viewBox="0 0 20 20"><path d="M17.898 13.477c-.43-.22-2.562-1.266-2.96-1.407-.399-.148-.688-.218-.977.22-.29.437-1.117 1.405-1.375 1.702-.25.29-.508.328-.938.11-2.546-1.274-4.218-2.274-5.898-5.157-.445-.765.445-.71 1.273-2.367.141-.289.07-.539-.039-.758s-.976-2.35-1.336-3.218c-.351-.844-.71-.727-.976-.743-.25-.015-.54-.015-.828-.015-.29 0-.758.11-1.156.539C2.289 2.82 1.172 3.867 1.172 6s1.555 4.195 1.766 4.484c.218.29 3.054 4.664 7.406 6.547 2.75 1.188 3.828 1.29 5.203 1.086.836-.125 2.562-1.047 2.922-2.062.36-1.016.36-1.883.25-2.063-.102-.195-.39-.305-.82-.515"/></symbol><use xlink:href="#sprite-phone" width="20" height="20" y="30"/><view id="sprite-phone-view" viewBox="0 30 20 20"/></svg>